<?xml version="1.0" encoding="UTF-8" standalone="no"?>
<svg
   version="1.1"
   viewBox="0 0 714.09924 256.0043"
   fill="none"
   stroke="none"
   stroke-linecap="square"
   stroke-miterlimit="10"
   id="svg48"
   sodipodi:docname="zombienella-importunus.svg"
   width="714.09924"
   height="256.0043"
   inkscape:version="1.4.4 (dcaf3e7d9e, 2026-05-05)"
   xmlns:inkscape="http://www.inkscape.org/namespaces/inkscape"
   xmlns:sodipodi="http://sodipodi.sourceforge.net/DTD/sodipodi-0.dtd"
   xmlns="http://www.w3.org/2000/svg"
   xmlns:svg="http://www.w3.org/2000/svg">
  <defs
     id="defs48" />
  <sodipodi:namedview
     id="namedview48"
     pagecolor="#505050"
     bordercolor="#eeeeee"
     borderopacity="1"
     inkscape:showpageshadow="0"
     inkscape:pageopacity="0"
     inkscape:pagecheckerboard="0"
     inkscape:deskcolor="#505050"
     inkscape:zoom="0.75092593"
     inkscape:cx="326.26387"
     inkscape:cy="1.9975339"
     inkscape:window-width="1850"
     inkscape:window-height="1016"
     inkscape:window-x="1990"
     inkscape:window-y="27"
     inkscape:window-maximized="1"
     inkscape:current-layer="svg48" />
  <path
     fill="#999999"
     d="m 93.71209,8.33121 c 0,-4.09076 -3.31622,-7.40697 -7.40698,-7.40697 H 55.85922 c -1.96445,0 -3.84845,0.78037 -5.23752,2.16944 -1.38909,1.38908 -2.16945,3.27307 -2.16945,5.23753 v 29.627 c 0,4.09076 3.31621,7.40697 7.40697,7.40697 h 30.44589 c 4.09076,0 7.40698,-3.31621 7.40698,-7.40697 z"
     fill-rule="evenodd"
     id="path3" />
  <path
     fill="#999999"
     d="m 45.99,8.33121 c 0,-4.09076 -3.31622,-7.40697 -7.40698,-7.40697 H 8.13713 c -1.96445,0 -3.84845,0.78037 -5.23752,2.16944 C 1.51053,4.48276 0.73015,6.36675 0.73015,8.33121 v 29.627 c 0,4.09076 3.31622,7.40697 7.40698,7.40697 h 30.44589 c 4.09076,0 7.40698,-3.31621 7.40698,-7.40697 z"
     fill-rule="evenodd"
     id="path4" />
  <path
     fill="#999999"
     d="m 714.09926,8.33121 c 0,-4.09076 -3.31622,-7.40697 -7.40698,-7.40697 h -30.44586 c -1.96448,0 -3.84845,0.78037 -5.23755,2.16944 -1.38904,1.38908 -2.16944,3.27307 -2.16944,5.23753 v 29.627 c 0,4.09076 3.31623,7.40697 7.40699,7.40697 h 30.44586 c 4.09076,0 7.40698,-3.31621 7.40698,-7.40697 z"
     fill-rule="evenodd"
     id="path5" />
  <path
     fill="#999999"
     d="m 92.98192,113.6528 c 0,-4.09076 -3.31621,-7.40697 -7.40697,-7.40697 H 55.12906 c -1.96446,0 -3.84845,0.78037 -5.23752,2.16945 -1.38908,1.38907 -2.16946,3.27307 -2.16946,5.23752 v 29.62701 c 0,4.09076 3.31622,7.40696 7.40698,7.40696 h 30.44589 c 4.09076,0 7.40697,-3.3162 7.40697,-7.40696 z"
     fill-rule="evenodd"
     id="path6" />
  <path
     fill="#999999"
     d="m 45.25983,113.6528 c 0,-4.09076 -3.31621,-7.40697 -7.40697,-7.40697 H 7.40696 c -1.96444,0 -3.84844,0.78037 -5.23752,2.16945 C 0.78037,109.80435 0,111.68835 0,113.6528 v 29.62701 c 0,4.09076 3.3162,7.40696 7.40696,7.40696 h 30.4459 c 4.09076,0 7.40697,-3.3162 7.40697,-7.40696 z"
     fill-rule="evenodd"
     id="path7" />
  <path
     fill="#999999"
     d="m 713.3691,113.6528 c 0,-4.09076 -3.31616,-7.40697 -7.40692,-7.40697 h -30.44592 c -1.96448,0 -3.84845,0.78037 -5.23749,2.16945 -1.3891,1.38907 -2.1695,3.27307 -2.1695,5.23752 v 29.62701 c 0,4.09076 3.31623,7.40696 7.40699,7.40696 h 30.44592 c 4.09076,0 7.40692,-3.3162 7.40692,-7.40696 z"
     fill-rule="evenodd"
     id="path8" />
  <path
     fill="#9a845c"
     d="m 42.64463,74.53482 c 0,-12.08069 -9.41258,-21.87401 -21.02361,-21.87401 -5.57582,0 -10.92326,2.30457 -14.86595,6.40676 -3.94269,4.10217 -6.15768,9.6659 -6.15768,15.46725 0,12.08069 9.4126,21.87402 21.02363,21.87402 11.61103,0 21.02361,-9.79333 21.02361,-21.87402 z"
     fill-rule="evenodd"
     id="path9" />
  <path
     fill="#6e8894"
     d="m 283.16228,163.45586 c 0,-4.09076 -3.31622,-7.40698 -7.40698,-7.40698 h -30.44589 c -1.96445,0 -3.84845,0.78039 -5.23752,2.16946 -1.38907,1.38907 -2.16944,3.27307 -2.16944,5.23752 v 29.62701 c 0,4.09076 3.3162,7.40696 7.40696,7.40696 h 30.44589 c 4.09076,0 7.40698,-3.3162 7.40698,-7.40696 z"
     fill-rule="evenodd"
     id="path10" />
  <path
     stroke="#6e8894"
     stroke-width="2"
     stroke-linejoin="round"
     stroke-linecap="butt"
     d="m 283.16228,163.45586 c 0,-4.09076 -3.31622,-7.40698 -7.40698,-7.40698 h -30.44589 c -1.96445,0 -3.84845,0.78039 -5.23752,2.16946 -1.38907,1.38907 -2.16944,3.27307 -2.16944,5.23752 v 29.62701 c 0,4.09076 3.3162,7.40696 7.40696,7.40696 h 30.44589 c 4.09076,0 7.40698,-3.3162 7.40698,-7.40696 z"
     fill-rule="evenodd"
     id="path11" />
  <path
     fill="#6f6476"
     d="m 236.14821,163.45586 c 0,-4.09076 -3.31622,-7.40698 -7.40698,-7.40698 h -30.44589 c -1.96445,0 -3.84845,0.78039 -5.23752,2.16946 -1.38907,1.38907 -2.16947,3.27307 -2.16947,5.23752 v 29.62701 c 0,4.09076 3.31623,7.40696 7.40699,7.40696 h 30.44589 c 4.09076,0 7.40698,-3.3162 7.40698,-7.40696 z"
     fill-rule="evenodd"
     id="path12" />
  <path
     fill="#6f6476"
     d="m 521.32882,163.74646 c 0,-4.09076 -3.31622,-7.40698 -7.40698,-7.40698 h -30.44593 c -1.96441,0 -3.84838,0.78036 -5.23748,2.16946 -1.3891,1.38907 -2.16944,3.27307 -2.16944,5.23752 v 29.62698 c 0,4.09076 3.31623,7.40699 7.40692,7.40699 h 30.44593 c 4.09076,0 7.40698,-3.31623 7.40698,-7.40699 z"
     fill-rule="evenodd"
     id="path13" />
  <path
     fill="#6f6476"
     d="m 425.89446,112.72857 c 0,-4.09076 -3.31622,-7.40697 -7.40698,-7.40697 h -30.44593 c -1.96444,0 -3.84845,0.78038 -5.23751,2.16945 -1.38907,1.38909 -2.16944,3.27307 -2.16944,5.23752 v 29.62701 c 0,4.09076 3.3162,7.40696 7.40695,7.40696 h 30.44593 c 4.09076,0 7.40698,-3.3162 7.40698,-7.40696 z"
     fill-rule="evenodd"
     id="path14" />
  <path
     stroke="#a4bbc6"
     stroke-width="4"
     stroke-linejoin="round"
     stroke-linecap="butt"
     d="m 425.89446,112.72857 c 0,-4.09076 -3.31622,-7.40697 -7.40698,-7.40697 h -30.44593 c -1.96444,0 -3.84845,0.78038 -5.23751,2.16945 -1.38907,1.38909 -2.16944,3.27307 -2.16944,5.23752 v 29.62701 c 0,4.09076 3.3162,7.40696 7.40695,7.40696 h 30.44593 c 4.09076,0 7.40698,-3.3162 7.40698,-7.40696 z"
     fill-rule="evenodd"
     id="path15" />
  <path
     fill="#6f6476"
     d="m 330.73966,112.72857 c 0,-4.09076 -3.31622,-7.40697 -7.40698,-7.40697 h -30.44589 c -1.96445,0 -3.84845,0.78038 -5.23752,2.16945 -1.38907,1.38909 -2.16944,3.27307 -2.16944,5.23752 v 29.62701 c 0,4.09076 3.3162,7.40696 7.40696,7.40696 h 30.44589 c 4.09076,0 7.40698,-3.3162 7.40698,-7.40696 z"
     fill-rule="evenodd"
     id="path16" />
  <path
     stroke="#a4bbc6"
     stroke-width="4"
     stroke-linejoin="round"
     stroke-linecap="butt"
     d="m 330.73966,112.72857 c 0,-4.09076 -3.31622,-7.40697 -7.40698,-7.40697 h -30.44589 c -1.96445,0 -3.84845,0.78038 -5.23752,2.16945 -1.38907,1.38909 -2.16944,3.27307 -2.16944,5.23752 v 29.62701 c 0,4.09076 3.3162,7.40696 7.40696,7.40696 h 30.44589 c 4.09076,0 7.40698,-3.3162 7.40698,-7.40696 z"
     fill-rule="evenodd"
     id="path17" />
  <path
     fill="#6f6476"
     d="m 283.16228,112.72857 c 0,-4.09076 -3.31622,-7.40697 -7.40698,-7.40697 h -30.44589 c -1.96445,0 -3.84845,0.78038 -5.23752,2.16945 -1.38907,1.38909 -2.16944,3.27307 -2.16944,5.23752 v 29.62701 c 0,4.09076 3.3162,7.40696 7.40696,7.40696 h 30.44589 c 4.09076,0 7.40698,-3.3162 7.40698,-7.40696 z"
     fill-rule="evenodd"
     id="path18" />
  <path
     fill="#6f6476"
     d="m 521.32882,113.6528 c 0,-4.09076 -3.31622,-7.40697 -7.40698,-7.40697 h -30.44593 c -1.96441,0 -3.84838,0.78037 -5.23748,2.16945 -1.3891,1.38907 -2.16944,3.27307 -2.16944,5.23752 v 29.62701 c 0,4.09076 3.31623,7.40696 7.40692,7.40696 h 30.44593 c 4.09076,0 7.40698,-3.3162 7.40698,-7.40696 z"
     fill-rule="evenodd"
     id="path19" />
  <path
     stroke="#a4bbc6"
     stroke-width="4"
     stroke-linejoin="round"
     stroke-linecap="butt"
     d="m 521.32882,113.6528 c 0,-4.09076 -3.31622,-7.40697 -7.40698,-7.40697 h -30.44593 c -1.96441,0 -3.84838,0.78037 -5.23748,2.16945 -1.3891,1.38907 -2.16944,3.27307 -2.16944,5.23752 v 29.62701 c 0,4.09076 3.31623,7.40696 7.40692,7.40696 h 30.44593 c 4.09076,0 7.40698,-3.3162 7.40698,-7.40696 z"
     fill-rule="evenodd"
     id="path20" />
  <path
     fill="#e3e7ea"
     d="m 281.54396,178.25934 c 0,-12.08069 -9.4126,-21.87399 -21.02362,-21.87399 -5.57584,0 -10.92328,2.30456 -14.86597,6.40674 -3.94269,4.10217 -6.15765,9.66592 -6.15765,15.46725 0,12.08069 9.41257,21.87402 21.02362,21.87402 11.61102,0 21.02362,-9.79333 21.02362,-21.87402 z"
     fill-rule="evenodd"
     id="path21" />
  <path
     fill="#999999"
     d="m 236.87836,7.40698 c 0,-4.09076 -3.31619,-7.40697 -7.40695,-7.40697 h -30.44589 c -1.96448,0 -3.84845,0.78037 -5.23752,2.16944 -1.3891,1.38909 -2.16947,3.27308 -2.16947,5.23753 v 29.627 c 0,4.09076 3.31623,7.40697 7.40699,7.40697 h 30.44589 c 4.09076,0 7.40695,-3.31621 7.40695,-7.40697 z"
     fill-rule="evenodd"
     id="path22" />
  <path
     fill="#999999"
     d="m 189.15626,7.40698 c 0,-4.09076 -3.31622,-7.40697 -7.40698,-7.40697 h -30.44589 c -1.96445,0 -3.84844,0.78037 -5.23752,2.16944 -1.38909,1.38909 -2.16945,3.27308 -2.16945,5.23753 v 29.627 c 0,4.09076 3.31621,7.40697 7.40697,7.40697 h 30.44589 c 4.09076,0 7.40698,-3.31621 7.40698,-7.40697 z"
     fill-rule="evenodd"
     id="path23" />
  <path
     fill="#999999"
     d="m 141.43418,8.33121 c 0,-4.09076 -3.31622,-7.40697 -7.40698,-7.40697 h -30.44589 c -1.96445,0 -3.84844,0.78037 -5.23752,2.16944 -1.38909,1.38908 -2.16945,3.27307 -2.16945,5.23753 v 29.627 c 0,4.09076 3.31621,7.40697 7.40697,7.40697 h 30.44589 c 4.09076,0 7.40698,-3.31621 7.40698,-7.40697 z"
     fill-rule="evenodd"
     id="path24" />
  <path
     fill="#999999"
     d="m 570.933,8.33121 c 0,-4.09076 -3.31622,-7.40697 -7.40698,-7.40697 h -30.44586 c -1.96448,0 -3.84845,0.78037 -5.23755,2.16944 -1.3891,1.38908 -2.16944,3.27307 -2.16944,5.23753 v 29.627 c 0,4.09076 3.31623,7.40697 7.40699,7.40697 h 30.44586 c 4.09076,0 7.40698,-3.31621 7.40698,-7.40697 z"
     fill-rule="evenodd"
     id="path25" />
  <path
     fill="#999999"
     d="M 380.04464,7.40629 C 380.04464,3.31591 376.72872,0 372.63836,0 h -30.43723 c -1.96426,0 -3.84808,0.78031 -5.23703,2.16925 -1.38894,1.38896 -2.16925,3.27278 -2.16925,5.23704 v 29.62428 c 0,4.0904 3.31592,7.4063 7.40628,7.4063 h 30.43723 c 4.09036,0 7.40628,-3.3159 7.40628,-7.4063 z"
     fill-rule="evenodd"
     id="path26" />
  <path
     fill="#999999"
     d="M 332.32253,7.40629 C 332.32253,3.31591 329.00664,0 324.91625,0 h -30.4372 c -1.96426,0 -3.84808,0.78031 -5.23706,2.16925 -1.38894,1.38896 -2.16925,3.27278 -2.16925,5.23704 v 29.62428 c 0,4.0904 3.31592,7.4063 7.40631,7.4063 h 30.4372 c 4.09039,0 7.40628,-3.3159 7.40628,-7.4063 z"
     fill-rule="evenodd"
     id="path27" />
  <path
     fill="#999999"
     d="M 284.60046,7.40629 C 284.60046,3.31591 281.28454,0 277.19418,0 h -30.43723 c -1.96426,0 -3.84808,0.78031 -5.23703,2.16925 -1.38894,1.38896 -2.16925,3.27278 -2.16925,5.23704 v 29.62428 c 0,4.0904 3.31592,7.4063 7.40628,7.4063 h 30.43723 c 4.09036,0 7.40628,-3.3159 7.40628,-7.4063 z"
     fill-rule="evenodd"
     id="path28" />
  <path
     fill="#999999"
     d="m 427.76676,8.33052 c 0,-4.09038 -3.31592,-7.40629 -7.40631,-7.40629 h -30.4372 c -1.96426,0 -3.84808,0.78031 -5.23706,2.16925 -1.38894,1.38895 -2.16925,3.27278 -2.16925,5.23704 V 37.9548 c 0,4.0904 3.31592,7.4063 7.40631,7.4063 h 30.4372 c 4.09039,0 7.40631,-3.3159 7.40631,-7.4063 z"
     fill-rule="evenodd"
     id="path29" />
  <path
     fill="#999999"
     d="m 523.2109,8.33052 c 0,-4.09038 -3.31592,-7.40629 -7.40625,-7.40629 h -30.43726 c -1.96423,0 -3.84808,0.78031 -5.237,2.16925 -1.38897,1.38895 -2.16925,3.27278 -2.16925,5.23704 V 37.9548 c 0,4.0904 3.31592,7.4063 7.40625,7.4063 h 30.43726 c 4.09033,0 7.40625,-3.3159 7.40625,-7.4063 z"
     fill-rule="evenodd"
     id="path30" />
  <path
     fill="#999999"
     d="m 475.48886,8.33052 c 0,-4.09038 -3.31592,-7.40629 -7.40631,-7.40629 h -30.4372 c -1.96429,0 -3.84808,0.78031 -5.23706,2.16925 -1.38897,1.38895 -2.16925,3.27278 -2.16925,5.23704 V 37.9548 c 0,4.0904 3.31592,7.4063 7.40631,7.4063 h 30.4372 c 4.09039,0 7.40631,-3.3159 7.40631,-7.4063 z"
     fill-rule="evenodd"
     id="path31" />
  <path
     fill="#999999"
     d="m 666.37722,8.33121 c 0,-4.09076 -3.31622,-7.40697 -7.40698,-7.40697 h -30.44593 c -1.96441,0 -3.84845,0.78037 -5.23748,2.16944 -1.3891,1.38908 -2.1695,3.27307 -2.1695,5.23753 v 29.627 c 0,4.09076 3.31623,7.40697 7.40698,7.40697 h 30.44593 c 4.09076,0 7.40698,-3.31621 7.40698,-7.40697 z"
     fill-rule="evenodd"
     id="path32" />
  <path
     fill="#999999"
     d="m 618.65511,8.33121 c 0,-4.09076 -3.31622,-7.40697 -7.40698,-7.40697 H 580.8022 c -1.96441,0 -3.84845,0.78037 -5.23748,2.16944 -1.3891,1.38908 -2.16944,3.27307 -2.16944,5.23753 v 29.627 c 0,4.09076 3.31616,7.40697 7.40692,7.40697 h 30.44593 c 4.09076,0 7.40698,-3.31621 7.40698,-7.40697 z"
     fill-rule="evenodd"
     id="path33" />
  <path
     fill="#999999"
     d="m 188.42611,112.72857 c 0,-4.09076 -3.31619,-7.40697 -7.40695,-7.40697 h -30.44591 c -1.96446,0 -3.84845,0.78038 -5.23752,2.16945 -1.38908,1.38909 -2.16946,3.27307 -2.16946,5.23752 v 29.62701 c 0,4.09076 3.31622,7.40696 7.40698,7.40696 h 30.44591 c 4.09076,0 7.40695,-3.3162 7.40695,-7.40696 z"
     fill-rule="evenodd"
     id="path34" />
  <path
     fill="#999999"
     d="m 140.70401,113.6528 c 0,-4.09076 -3.31621,-7.40697 -7.40697,-7.40697 h -30.44589 c -1.96446,0 -3.84845,0.78037 -5.23752,2.16945 -1.38908,1.38907 -2.16946,3.27307 -2.16946,5.23752 v 29.62701 c 0,4.09076 3.31622,7.40696 7.40698,7.40696 h 30.44589 c 4.09076,0 7.40697,-3.3162 7.40697,-7.40696 z"
     fill-rule="evenodd"
     id="path35" />
  <path
     fill="#999999"
     d="m 570.20286,113.6528 c 0,-4.09076 -3.31622,-7.40697 -7.40698,-7.40697 h -30.44586 c -1.96448,0 -3.84845,0.78037 -5.23755,2.16945 -1.38904,1.38907 -2.16944,3.27307 -2.16944,5.23752 v 29.62701 c 0,4.09076 3.31623,7.40696 7.40699,7.40696 h 30.44586 c 4.09076,0 7.40698,-3.3162 7.40698,-7.40696 z"
     fill-rule="evenodd"
     id="path36" />
  <path
     fill="#999999"
     d="m 665.64706,113.6528 c 0,-4.09076 -3.31622,-7.40697 -7.40698,-7.40697 h -30.44593 c -1.96441,0 -3.84845,0.78037 -5.23748,2.16945 -1.3891,1.38907 -2.1695,3.27307 -2.1695,5.23752 v 29.62701 c 0,4.09076 3.31623,7.40696 7.40698,7.40696 h 30.44593 c 4.09076,0 7.40698,-3.3162 7.40698,-7.40696 z"
     fill-rule="evenodd"
     id="path37" />
  <path
     fill="#999999"
     d="m 617.92496,113.6528 c 0,-4.09076 -3.31622,-7.40697 -7.40698,-7.40697 h -30.44586 c -1.96448,0 -3.84845,0.78037 -5.23755,2.16945 -1.3891,1.38907 -2.16944,3.27307 -2.16944,5.23752 v 29.62701 c 0,4.09076 3.31623,7.40696 7.40699,7.40696 h 30.44586 c 4.09076,0 7.40698,-3.3162 7.40698,-7.40696 z"
     fill-rule="evenodd"
     id="path38" />
  <path
     fill="#6f6476"
     d="m 378.44341,218.0495 c 0,-4.09039 -3.31592,-7.40628 -7.40628,-7.40628 H 340.5999 c -1.96426,0 -3.84808,0.7803 -5.23703,2.16925 -1.38894,1.38895 -2.16925,3.27277 -2.16925,5.23703 v 29.6243 c 0,4.09036 3.31592,7.40628 7.40628,7.40628 h 30.43723 c 4.09036,0 7.40628,-3.31592 7.40628,-7.40628 z"
     fill-rule="evenodd"
     id="path39" />
  <path
     fill="#6f6476"
     d="m 330.7213,218.0495 c 0,-4.09039 -3.31589,-7.40628 -7.40628,-7.40628 h -30.4372 c -1.96426,0 -3.84808,0.7803 -5.23706,2.16925 -1.38894,1.38895 -2.16925,3.27277 -2.16925,5.23703 v 29.6243 c 0,4.09036 3.31592,7.40628 7.40631,7.40628 h 30.4372 c 4.09039,0 7.40628,-3.31592 7.40628,-7.40628 z"
     fill-rule="evenodd"
     id="path40" />
  <path
     fill="#6f6476"
     d="m 282.99923,218.0495 c 0,-4.09039 -3.31592,-7.40628 -7.40631,-7.40628 h -30.4372 c -1.96426,0 -3.84808,0.7803 -5.23703,2.16925 -1.38894,1.38895 -2.16925,3.27277 -2.16925,5.23703 v 29.6243 c 0,4.09036 3.31592,7.40628 7.40628,7.40628 h 30.4372 c 4.09039,0 7.40631,-3.31592 7.40631,-7.40628 z"
     fill-rule="evenodd"
     id="path41" />
  <path
     fill="#6f6476"
     d="m 426.16546,218.97372 c 0,-4.09039 -3.31592,-7.40628 -7.40625,-7.40628 h -30.43723 c -1.96426,0 -3.84808,0.7803 -5.23706,2.16925 -1.38894,1.38895 -2.16925,3.27277 -2.16925,5.23703 v 29.62427 c 0,4.09039 3.31592,7.40631 7.40632,7.40631 h 30.43722 c 4.09033,0 7.40625,-3.31592 7.40625,-7.40631 z"
     fill-rule="evenodd"
     id="path42" />
  <path
     fill="#6f6476"
     d="m 521.6097,218.97372 c 0,-4.09039 -3.31592,-7.40628 -7.40631,-7.40628 h -30.4372 c -1.96429,0 -3.84808,0.7803 -5.23706,2.16925 -1.38891,1.38895 -2.16925,3.27277 -2.16925,5.23703 v 29.62427 c 0,4.09039 3.31592,7.40631 7.40631,7.40631 h 30.4372 c 4.09039,0 7.40631,-3.31592 7.40631,-7.40631 z"
     fill-rule="evenodd"
     id="path43" />
  <path
     fill="#6f6476"
     d="m 473.88759,218.97372 c 0,-4.09039 -3.31592,-7.40628 -7.40631,-7.40628 h -30.4372 c -1.96423,0 -3.84808,0.7803 -5.23706,2.16925 -1.38891,1.38895 -2.16925,3.27277 -2.16925,5.23703 v 29.62427 c 0,4.09039 3.31592,7.40631 7.40631,7.40631 h 30.4372 c 4.09039,0 7.40631,-3.31592 7.40631,-7.40631 z"
     fill-rule="evenodd"
     id="path44" />
  <path
     fill="#eeeeee"
     d="m 195.78652,127.53459 c 0,9.69759 7.939,17.55904 17.73227,17.55904 q 8.86615,0 17.7323,0 0,-8.77951 0,-17.55904 c 0,-9.6976 -7.93903,-17.55907 -17.7323,-17.55907 -9.79327,0 -17.73227,7.86147 -17.73227,17.55907 z"
     fill-rule="evenodd"
     id="path45" />
  <path
     stroke="#6f6476"
     stroke-width="6.6273"
     stroke-linejoin="round"
     stroke-linecap="butt"
     d="m 195.78652,127.53459 c 0,9.69759 7.939,17.55904 17.73227,17.55904 q 8.86615,0 17.7323,0 0,-8.77951 0,-17.55904 c 0,-9.6976 -7.93903,-17.55907 -17.7323,-17.55907 -9.79327,0 -17.73227,7.86147 -17.73227,17.55907 z"
     fill-rule="evenodd"
     id="path46" />
  <path
     fill="#9a845c"
     d="m 184.53902,74.53482 c 0,-12.08069 -9.4126,-21.87401 -21.02362,-21.87401 -5.57581,0 -10.92323,2.30457 -14.86594,6.40676 -3.94268,4.10217 -6.15767,9.6659 -6.15767,15.46725 0,12.08069 9.4126,21.87402 21.02361,21.87402 11.61102,0 21.02362,-9.79333 21.02362,-21.87402 z"
     fill-rule="evenodd"
     id="path47" />
  <path
     fill="#741b47"
     d="m 573.96276,74.97638 c 0,-11.61102 9.4126,-21.02362 21.02362,-21.02362 5.57581,0 10.92328,2.21498 14.86597,6.15768 3.94268,3.94269 6.15765,9.29014 6.15765,14.86594 0,11.61104 -9.4126,21.02364 -21.02362,21.02364 -11.61102,0 -21.02362,-9.4126 -21.02362,-21.02364 z m 10.51184,0 c 0,5.80553 4.7063,10.51181 10.51178,10.51181 5.80554,0 10.51184,-4.70628 10.51184,-10.51181 0,-5.80551 -4.7063,-10.51181 -10.51184,-10.51181 -5.80548,0 -10.51178,4.7063 -10.51178,10.51181 z"
     fill-rule="evenodd"
     id="path48" />
</svg>
